<!-- <svg viewBox="0 0 24 24" xmlns="http://www.w3.org/2000/svg"><path d="m0 0h24v24h-24z" fill="none"/><path d="m12 22c-5.523 0-10-4.477-10-10s4.477-10 10-10 10 4.477 10 10-4.477 10-10 10zm-.997-6 7.07-7.071-1.414-1.414-5.656 5.657-2.829-2.829-1.414 1.414z"/></svg> -->
<svg viewBox="0 0 24 24" xmlns="http://www.w3.org/2000/svg">
  <!-- Define the linear gradient -->
  <defs>
    <linearGradient id="grad1" x1="0%" y1="0%" x2="100%" y2="100%">
      <stop offset="0%" style="stop-color:rgba(2, 0, 36, 1);stop-opacity:1" />
      <stop offset="38%" style="stop-color:rgba(46, 66, 193, 1);stop-opacity:1" />
      <stop offset="100%" style="stop-color:rgba(243, 114, 114, 1);stop-opacity:1" />
    </linearGradient>
  </defs>

  <!-- Your SVG path with the gradient fill applied -->
  <path d="m0 0h24v24h-24z" fill="none"/>
  <path d="m12 22c-5.523 0-10-4.477-10-10s4.477-10 10-10 10 4.477 10 10-4.477 10-10 10zm-.997-6 7.07-7.071-1.414-1.414-5.656 5.657-2.829-2.829-1.414 1.414z" fill="url(#grad1)"/>
</svg>